<svg xmlns="http://www.w3.org/2000/svg" viewBox="0 0 100 100">
  <path d="M79.342,70.197c-3.717,0-7.067,1.443-9.609,3.766L34.889,53.643c0.269-1.1,0.44-2.249,0.44-3.423s-0.171-2.323-0.44-3.423l34.477-20.124c2.616,2.445,6.113,3.961,9.976,3.961c8.094,0,14.671-6.577,14.671-14.671S87.435,1.293,79.342,1.293S64.671,7.87,64.671,15.964c0,1.174,0.171,2.323,0.44,3.423L30.634,39.51c-2.616-2.445-6.113-3.961-9.976-3.961c-8.094,0-14.671,6.577-14.671,14.671s6.577,14.671,14.671,14.671c3.863,0,7.36-1.516,9.976-3.961l34.843,20.319c-0.245,1.027-0.391,2.103-0.391,3.203c0,7.873,6.382,14.255,14.255,14.255s14.255-6.382,14.255-14.255S87.215,70.197,79.342,70.197z"/>
</svg>
