<?xml version="1.0" standalone="no"?>
<!DOCTYPE svg PUBLIC "-//W3C//DTD SVG 20010904//EN"
 "http://www.w3.org/TR/2001/REC-SVG-20010904/DTD/svg10.dtd">
<svg version="1.0" xmlns="http://www.w3.org/2000/svg"
 width="628.000000pt" height="628.000000pt" viewBox="0 0 628.000000 628.000000"
 preserveAspectRatio="xMidYMid meet">
<metadata>
Created by potrace 1.11, written by Peter Selinger 2001-2013
</metadata>
<g transform="translate(0.000000,628.000000) scale(0.100000,-0.100000)"
fill="#000000" stroke="none">
<path d="M2979 6153 c-215 -151 -457 -343 -633 -502 -309 -278 -630 -613 -821
-855 -16 -21 -42 -52 -56 -69 -14 -18 -57 -75 -96 -127 -370 -504 -604 -983
-712 -1465 -16 -71 -32 -154 -36 -184 -4 -30 -9 -63 -11 -75 -17 -84 -23 -397
-10 -546 11 -129 47 -335 77 -435 91 -308 183 -512 337 -745 105 -159 175
-243 337 -405 318 -319 701 -539 1140 -655 61 -16 124 -32 140 -35 17 -2 40
-7 53 -9 115 -24 294 -39 452 -39 121 -1 316 10 330 18 3 1 29 6 59 9 45 5 89
14 251 51 158 35 418 138 585 231 121 67 131 73 205 123 636 432 1044 1118
1117 1876 14 147 8 481 -11 580 -2 11 -7 43 -11 70 -45 316 -195 733 -395
1094 -175 318 -452 698 -745 1021 -83 92 -455 461 -539 535 -44 39 -84 75 -90
80 -33 32 -270 227 -321 265 -33 25 -66 51 -73 58 -18 16 -290 208 -353 247
-3 2 -79 -48 -170 -112z m288 -910 c65 -53 138 -115 163 -138 25 -23 79 -72
120 -110 149 -136 371 -364 510 -525 36 -41 73 -83 83 -95 63 -69 297 -392
364 -501 254 -414 383 -746 430 -1109 10 -78 10 -332 0 -415 -66 -544 -374
-1030 -837 -1320 -169 -106 -425 -210 -580 -236 -14 -3 -50 -9 -80 -14 -175
-32 -435 -31 -604 1 -580 110 -1056 470 -1309 989 -76 156 -137 343 -153 463
-3 23 -9 58 -13 77 -9 45 -14 130 -15 250 -1 683 404 1447 1179 2224 119 120
297 287 369 347 16 13 34 29 40 34 6 6 52 44 101 85 50 41 92 78 93 83 7 15
25 4 139 -90z"/>
<path d="M2292 2620 c0 -452 3 -598 11 -593 13 8 239 171 322 233 28 20 150
109 273 198 l223 161 -140 103 c-76 57 -149 110 -161 118 -22 15 -115 83 -275
200 -49 36 -127 92 -171 123 l-82 57 0 -600z"/>
<path d="M3443 2620 c0 -448 3 -597 12 -592 6 4 82 59 169 122 173 126 199
145 242 175 16 11 34 24 41 30 6 5 37 28 68 50 31 22 111 80 177 128 l120 88
-68 50 c-38 27 -114 82 -169 122 -55 40 -158 115 -230 167 -71 51 -152 110
-180 130 -73 54 -158 115 -171 123 -8 4 -11 -163 -11 -593z"/>
</g>
</svg>
